<svg width="64" height="64" viewBox="0 0 64 64" fill="none" xmlns="http://www.w3.org/2000/svg">
<g clip-path="url(#clip0_33_360)">
<path d="M25.0336 18.0373L39.0671 32.0708L25.0336 46.1044L12.4142 33.485C11.6332 32.704 11.6332 31.4377 12.4142 30.6566L25.0336 18.0373Z" fill="white"/>
<path d="M38.9664 32.0331L51.5858 44.6524C52.3668 45.4335 52.3668 46.6998 51.5858 47.4808L40.3806 58.6859C39.5996 59.467 38.3333 59.467 37.5522 58.6859L24.9329 46.0666L38.9664 32.0331Z" fill="white"/>
<path d="M37.5522 5.41421C38.3333 4.63316 39.5996 4.63316 40.3806 5.41421L51.5858 16.6193C52.3668 17.4004 52.3668 18.6667 51.5858 19.4478L38.9664 32.0671L24.9329 18.0335L37.5522 5.41421Z" fill="white"/>
</g>
<defs>
<clipPath id="clip0_33_360">
<rect width="64" height="64" fill="white"/>
</clipPath>
</defs>
</svg>
