<svg width="230" height="56" viewBox="0 0 230 56" fill="none" xmlns="http://www.w3.org/2000/svg">
<path d="M50.024 45V10.92H59.768C68.216 10.92 72.632 14.184 72.632 20.376C72.632 24.264 69.848 26.952 65.432 27.384H65.384C70.856 27.768 74.072 30.744 74.072 35.352C74.072 41.544 69.752 45 61.688 45H50.024ZM56.504 39.144H61.448C65.192 39.144 67.352 37.608 67.352 34.872C67.352 32.04 65.288 30.552 61.448 30.552H56.504V39.144ZM56.504 24.792H60.056C63.896 24.792 65.912 23.448 65.912 20.808C65.912 18.168 63.896 16.776 60.056 16.776H56.504V24.792Z" fill="white"/>
<path d="M98.0052 45H92.1973L92.0052 41.016C90.7092 43.992 88.2613 45.576 85.0933 45.576C79.9093 45.576 77.1732 41.784 77.1732 35.928V19.56H83.5573V34.632C83.5573 38.664 84.7572 40.728 87.3972 40.728C90.1332 40.728 91.7653 38.664 91.7653 34.632V19.56H98.0052V45Z" fill="white"/>
<path d="M113.683 19.56L114.115 24.36C114.931 21.048 117.043 19.56 120.403 19.56H125.779V25.08H121.075C117.427 25.08 115.987 26.712 115.987 30.36V39.48H123.571V45H103.459V39.48H109.746V25.08H103.459V19.56H113.683Z" fill="white"/>
<path d="M140.544 45.576C133.44 45.576 128.352 40.2 128.352 32.28C128.352 24.36 133.44 18.984 140.544 18.984C147.648 18.984 152.736 24.36 152.736 32.28C152.736 40.2 147.648 45.576 140.544 45.576ZM134.928 32.28C134.928 37.128 137.088 40.104 140.544 40.104C144 40.104 146.16 37.128 146.16 32.28C146.16 27.432 144 24.456 140.544 24.456C137.088 24.456 134.928 27.432 134.928 32.28Z" fill="white"/>
<path d="M155.645 10.92H161.837V29.736L170.909 19.56H179.261L169.325 30.312L179.789 45H172.205L165.149 34.824L161.837 38.664V45H155.645V10.92Z" fill="white"/>
<path d="M182.026 10.92H188.218V29.736L197.29 19.56H205.642L195.706 30.312L206.17 45H198.586L191.53 34.824L188.218 38.664V45H182.026V10.92Z" fill="white"/>
<path d="M229.911 45H224.104L223.911 41.016C222.615 43.992 220.168 45.576 217 45.576C211.816 45.576 209.079 41.784 209.079 35.928V19.56H215.464V34.632C215.464 38.664 216.664 40.728 219.304 40.728C222.04 40.728 223.672 38.664 223.672 34.632V19.56H229.911V45Z" fill="white"/>
<path d="M14.0335 14.0373L28.0671 28.0708L14.0335 42.1044L1.41422 29.485C0.633167 28.704 0.633169 27.4377 1.41422 26.6566L14.0335 14.0373Z" fill="white"/>
<path d="M27.9664 28.0331L40.5858 40.6524C41.3668 41.4335 41.3668 42.6998 40.5858 43.4808L29.3807 54.686C28.5996 55.467 27.3333 55.467 26.5522 54.686L13.9329 42.0666L27.9664 28.0331Z" fill="white"/>
<path d="M26.5522 1.41422C27.3333 0.633167 28.5996 0.633169 29.3807 1.41422L40.5858 12.6193C41.3668 13.4004 41.3668 14.6667 40.5858 15.4478L27.9664 28.0671L13.9329 14.0335L26.5522 1.41422Z" fill="white"/>
</svg>
